# xmcd CD database file
#
# Track frame offsets:
#	150
#	16727
#	34724
#	48489
#	66919
#	83662
#	95557
#	111296
#	129714
#	147153
#
# Disc length: 2138 seconds
#
# Revision: 0
# Processed by: cddbd v1.4b42PL1 Copyright (c) Steve Scherf et al.
# Submitted via: CDex 1.40Beta8
#
DISCID=8308580a
DTITLE=Ross Wilson - Country and Wilson
DYEAR=2001
DGENRE=Country
TTITLE0=Some Of These Blues
TTITLE1=Nothing's Right, Nothing's Wrong
TTITLE2=It Matters To Me
TTITLE3=Bed Of Nails
TTITLE4=Wild One - live @ The Espy '91
TTITLE5=(I Was On) MTV In The 80's
TTITLE6=Like A Cross
TTITLE7=Don't Say You Didn't Mean It
TTITLE8=No Soul
TTITLE9=Rockabilly Woman
EXTD=YEAR: 2001 ID3G: 2
EXTT0=
EXTT1=
EXTT2=
EXTT3=
EXTT4=
EXTT5=
EXTT6=
EXTT7=
EXTT8=
EXTT9=
PLAYORDER=
